<?xml version="1.0" standalone="no"?>
<!DOCTYPE svg PUBLIC "-//W3C//DTD SVG 20010904//EN"
 "http://www.w3.org/TR/2001/REC-SVG-20010904/DTD/svg10.dtd">
<svg version="1.0" xmlns="http://www.w3.org/2000/svg"
 width="256.000000pt" height="256.000000pt" viewBox="0 0 256.000000 256.000000"
 preserveAspectRatio="xMidYMid meet">

<g transform="translate(0.000000,256.000000) scale(0.100000,-0.100000)"
fill="#000000" stroke="none">
<path d="M1080 2543 c-543 -83 -984 -528 -1064 -1074 -91 -619 271 -1206 867
-1404 536 -178 1138 27 1455 497 294 435 294 1001 0 1436 -275 408 -766 621
-1258 545z m-102 -206 c-112 -111 -192 -218 -258 -339 l-42 -78 -189 0 -190 0
18 31 c29 50 188 214 261 269 129 97 339 189 500 219 2 1 -43 -45 -100 -102z
m347 76 c80 -53 195 -157 257 -231 63 -76 108 -136 108 -145 0 -2 -38 11 -85
30 -115 46 -200 63 -325 63 -125 0 -210 -17 -325 -63 -47 -19 -85 -32 -85 -30
0 26 164 215 248 286 74 61 151 117 162 117 3 0 23 -12 45 -27z m336 -24 c93
-31 244 -111 321 -169 73 -55 232 -219 261 -269 l18 -31 -190 0 -189 0 -42 78
c-65 121 -146 227 -257 338 l-102 102 58 -14 c32 -7 87 -23 122 -35z m-201
-385 c258 -62 484 -289 546 -549 22 -92 22 -258 0 -350 -50 -208 -204 -398
-401 -494 -111 -54 -198 -74 -325 -74 -127 0 -214 20 -325 74 -197 96 -351
286 -401 494 -22 92 -22 258 0 350 72 298 332 527 646 568 56 8 189 -2 260
-19z m-904 -278 c-59 -94 -111 -236 -122 -333 l-7 -63 -158 0 -159 0 0 34 c0
92 45 270 97 389 l26 57 188 0 188 0 -53 -84z m1797 27 c52 -119 97 -297 97
-389 l0 -34 -158 0 -158 0 -11 78 c-16 106 -66 238 -124 327 l-49 75 189 0
188 0 26 -57z m-1919 -585 c11 -98 63 -240 122 -334 l53 -84 -188 0 -188 0
-26 58 c-52 118 -97 296 -97 388 l0 34 159 0 158 0 7 -62z m2016 28 c0 -92
-45 -270 -97 -388 l-26 -58 -188 0 -188 0 53 84 c59 94 111 236 122 334 l7 62
158 0 159 0 0 -34z m-1730 -633 c65 -122 146 -228 257 -339 l102 -102 -58 14
c-149 34 -326 116 -443 204 -73 55 -232 219 -261 269 l-18 31 190 0 189 0 42
-77z m1523 46 c-29 -50 -188 -214 -261 -269 -117 -88 -294 -170 -443 -204
l-58 -14 102 102 c111 111 192 217 257 339 l42 77 189 0 190 0 -18 -31z
m-1136 -164 c87 -19 259 -19 346 0 37 8 105 29 152 48 47 19 85 32 85 30 0 -9
-45 -69 -108 -145 -64 -77 -180 -181 -259 -233 l-43 -28 -42 28 c-80 52 -196
156 -260 233 -63 76 -108 136 -108 145 0 2 38 -11 85 -30 47 -19 115 -40 152
-48z"/>
<path d="M1243 1798 c-22 -28 -283 -506 -283 -518 0 -12 262 -492 283 -518 6
-7 24 -12 41 -10 29 3 39 17 173 258 79 140 143 262 143 270 0 13 -211 402
-267 493 -18 29 -30 37 -52 37 -16 0 -33 -6 -38 -12z m132 -319 c50 -88 91
-165 93 -169 2 -5 -40 -31 -92 -58 l-96 -49 -96 49 c-52 27 -94 53 -92 58 9
24 184 330 188 330 3 0 46 -72 95 -161z m-29 -361 c36 18 64 29 62 24 -12 -30
-122 -222 -127 -222 -5 0 -118 194 -129 222 -2 5 26 -6 62 -24 l66 -32 66 32z"/>
</g>
</svg>
